<?xml version="1.0" encoding="UTF-8" standalone="no"?>
<svg width="134px" height="137px" viewBox="0 0 134 137" version="1.1" xmlns="http://www.w3.org/2000/svg" xmlns:xlink="http://www.w3.org/1999/xlink" xmlns:sketch="http://www.bohemiancoding.com/sketch/ns">
    <!-- Generator: Sketch 3.3.3 (12072) - http://www.bohemiancoding.com/sketch -->
    <title>icon-shipping-rates-parcel</title>
    <desc>Created with Sketch.</desc>
    <defs></defs>
    <g id="Page-1" stroke="none" stroke-width="1" fill="none" fill-rule="evenodd" sketch:type="MSPage">
        <g id="icon-shipping-rates-parcel" sketch:type="MSLayerGroup">
            <path d="M132.740741,78.0111111 L101.511111,59.8777778 C100.755556,59.3740741 99.7481481,59.3740741 98.9925926,59.8777778 L67.5111111,78.0111111 C66.7555556,78.262963 66,79.0185185 66,80.0259259 L66,116.040741 C66,116.796296 66.7555556,117.803704 67.5111111,118.055556 L98.7407407,136.188889 C98.9925926,136.440741 99.4962963,136.440741 100,136.440741 C100.503704,136.440741 100.755556,136.440741 101.259259,136.188889 L132.740741,118.055556 C133.496296,117.551852 134,116.796296 134,116.040741 L134,80.0259259 C134,79.0185185 133.496296,78.262963 132.740741,78.0111111 L132.740741,78.0111111 Z M100,96.1444444 L88.9185185,89.8481481 L116.37037,74.2333333 L127.451852,80.5296296 L100,96.1444444 L100,96.1444444 Z M100.251852,64.662963 L110.577778,70.4555556 L83.1259259,86.3222222 L72.8,80.5296296 L100.251852,64.662963 L100.251852,64.662963 Z M71.037037,85.8185185 L81.1111111,91.3592593 L81.1111111,104.455556 L86.1481481,107.981481 L86.1481481,94.1296296 L96.2222222,99.4185185 L96.2222222,129.137037 L71.037037,114.781481 L71.037037,85.8185185 L71.037037,85.8185185 Z M101.259259,129.640741 L101.259259,100.174074 L128.962963,85.3148148 L128.962963,114.781481 L101.259259,129.640741 L101.259259,129.640741 Z" id="Parcel" fill="#800000" sketch:type="MSShapeGroup"></path>
            <g id="Globe" fill="#000000" sketch:type="MSShapeGroup">
                <path d="M58.8836066,0 L58.3081967,0 C42.7721311,0 28.195082,6.52580645 17.2622951,17.466129 C6.13770492,28.5983871 0,43.9532258 0,59.883871 C-5.11066599e-15,92.5129032 26.4688525,119 58.6918033,119 L59.4590164,119 C63.6786885,119 63.295082,111.706452 58.6918033,111.322581 C58.1163934,111.322581 59.2672131,111.322581 58.6918033,111.322581 C57.5409836,111.322581 56.5819672,111.322581 55.4311475,111.130645 C53.8967213,110.554839 52.3622951,109.595161 51.0196721,108.059677 C46.8,104.029032 43.5393443,97.8870968 41.2377049,88.2903226 L58.6918033,88.2903226 C60.2262295,88.2903226 61.5688525,86.9467742 61.5688525,85.4112903 C61.5688525,83.8758065 60.2262295,82.5322581 58.6918033,82.5322581 L39.895082,82.5322581 C38.552459,74.8548387 37.7852459,67.3693548 37.7852459,59.3080645 C37.7852459,54.1258065 38.1688525,49.9032258 38.9360656,44.1451613 L77.104918,44.1451613 C77.4885246,46.0645161 77.6803279,48.9435484 77.8721311,51.4387097 C78.0639344,52.9741935 79.4065574,54.1258065 80.9409836,54.1258065 C82.4754098,53.933871 83.6262295,52.5903226 83.6262295,50.8629032 C83.4344262,48.5596774 83.242623,46.0645161 82.8590164,44.1451613 L107.409836,44.1451613 C108.177049,46.8322581 108.560656,48.9435484 108.944262,51.2467742 C109.519672,56.0451613 117,57.1967742 117,52.7822581 C113.931148,23.8 88.9967213,1.91935484 58.8836066,0 L58.8836066,0 Z M7.48032787,59.6919355 C7.48032787,54.3177419 8.24754098,50.0951613 9.78196721,44.3370968 L33.1819672,44.3370968 C32.6065574,50.0951613 32.2229508,54.1258065 32.2229508,59.3080645 C32.0311475,67.5612903 32.7983607,75.0467742 34.1409836,82.7241935 L13.042623,82.7241935 C9.59016393,76.7741935 7.48032787,67.9451613 7.48032787,59.6919355 L7.48032787,59.6919355 Z M44.3065574,109.019355 C32.7983607,105.564516 23.0163934,97.8870968 16.495082,88.2903226 L35.4836066,88.2903226 C37.4016393,97.8870968 40.4704918,103.837097 44.3065574,109.019355 L44.3065574,109.019355 Z M33.9491803,38.3870968 L11.8918033,38.3870968 C14.3852459,32.6290323 18.0295082,27.4467742 22.6327869,22.8403226 C29.3459016,16.3145161 37.4016393,11.516129 46.2245902,9.21290323 C40.6622951,15.3548387 36.442623,24.9516129 33.9491803,38.3870968 L33.9491803,38.3870968 Z M39.895082,38.3870968 C43.347541,21.1129032 50.4442623,8.82903226 58.1163934,8.82903226 C65.7885246,8.82903226 72.6934426,21.1129032 76.1459016,38.3870968 L39.895082,38.3870968 L39.895082,38.3870968 Z M82.0918033,38.3870968 C79.7901639,26.8709677 75.7622951,15.7387097 70.5836066,9.78870968 C86.1196721,14.2032258 98.7786885,24.9516129 105.3,38.3870968 L82.0918033,38.3870968 L82.0918033,38.3870968 Z"></path>
            </g>
        </g>
    </g>
</svg>