<?xml version="1.0" encoding="UTF-8" standalone="no"?>
<svg width="32" height="32" viewBox="0 0 32 32" version="1.1" xmlns="http://www.w3.org/2000/svg" xmlns:xlink="http://www.w3.org/1999/xlink" >
    <path d="M27.35,7.75 L14.4,0.3 C14.1,0.1 13.7,0.1 13.35,0.3 L0.5,7.75 C0.2,7.95 0,8.25 0,8.6 L0,23.45 C0,23.8 0.2,24.15 0.5,24.3 L13.35,31.8 C13.5,31.9 13.65,31.95 13.85,31.95 C14,31.95 14.2,31.9 14.35,31.85 L16.95,30.4 C17.45,30.15 17.6,29.55 17.35,29.05 C17.1,28.55 16.55,28.4 16.1,28.65 L14.5,29.55 L14.5,16.7 L26,10.1 L26,18.6 C26,19.15 26.45,19.6 27,19.6 C27.55,19.6 28,19.15 28,18.6 L28,8.6 C28,8.25 27.65,7.9 27.35,7.75 L27.35,7.75 Z M13.8,15.3 L9.3,12.7 L20.55,6.2 L25.05,8.8 L13.8,15.3 L13.8,15.3 Z M13.85,2.3 L18.05,4.75 L6.8,11.25 L2.6,8.8 L13.85,2.3 L13.85,2.3 Z M2,10.15 L6,12.45 L6,18.6 L8.5,20.1 L8.5,13.9 L13,16.5 L13,29.25 L2,22.9 L2,10.15 L2,10.15 Z" fill="#000000"></path>
    <path d="M24.3,20.6 C21.15,20.6 18.6,23.15 18.6,26.3 C18.6,29.45 21.15,32 24.3,32 C27.45,32 30,29.45 30,26.3 C30,23.15 27.45,20.6 24.3,20.6 L24.3,20.6 Z M27.1,27.55 L25.25,27.55 L25.25,29.2 C25.25,29.75 24.8,30.2 24.25,30.2 C23.7,30.2 23.25,29.75 23.25,29.2 L23.25,27.55 L21.55,27.55 C21,27.55 20.55,27.1 20.55,26.55 C20.55,26 21,25.55 21.55,25.55 L23.25,25.55 L23.25,23.8 C23.25,23.25 23.7,22.8 24.25,22.8 C24.8,22.8 25.25,23.25 25.25,23.8 L25.25,25.55 L27.1,25.55 C27.65,25.55 28.1,26 28.1,26.55 C28.1,27.1 27.65,27.55 27.1,27.55 L27.1,27.55 Z" fill="#800000"></path>
</svg>