<?xml version="1.0" encoding="UTF-8" standalone="no"?>
<svg width="130px" height="136px" viewBox="0 0 130 136" version="1.1" xmlns="http://www.w3.org/2000/svg" xmlns:xlink="http://www.w3.org/1999/xlink" xmlns:sketch="http://www.bohemiancoding.com/sketch/ns">
    <!-- Generator: Sketch 3.3.3 (12072) - http://www.bohemiancoding.com/sketch -->
    <title>icon-shipping-rates-document</title>
    <desc>Created with Sketch.</desc>
    <defs></defs>
    <g id="Page-1" stroke="none" stroke-width="1" fill="none" fill-rule="evenodd" sketch:type="MSPage">
        <g id="icon-shipping-rates-document" sketch:type="MSLayerGroup">
            <g id="Document" transform="translate(67.000000, 58.000000)" fill="#800000" sketch:type="MSShapeGroup">
                <path d="M60.48,78 L2.52,78 C1.26,78 0,76.9935484 0,75.483871 L0,2.51612903 C0,1.25806452 1.008,0 2.52,0 L39.816,0 C40.068,0 40.572,0 40.824,0.251612903 C41.076,0.251612903 41.328,0.503225806 41.58,0.75483871 L41.58,0.75483871 L41.58,0.75483871 L41.58,0.75483871 L62.244,21.3870968 L62.244,21.3870968 L62.244,21.3870968 L62.244,21.3870968 L62.244,21.3870968 C62.496,21.6387097 62.748,21.8903226 62.748,22.1419355 C62.748,22.3935484 63,22.6451613 63,23.1483871 L63,23.1483871 L63,23.1483871 L63,23.1483871 L63,23.1483871 L63,23.1483871 L63,75.483871 C63,76.7419355 61.74,78 60.48,78 L60.48,78 Z M6.048,71.4580645 L56.7,71.4580645 L56.7,26.1677419 L39.312,26.1677419 C38.052,26.1677419 37.044,25.1612903 37.044,23.9032258 L37.044,6.54193548 L6.048,6.54193548 L6.048,71.4580645 L6.048,71.4580645 Z M42.336,20.6322581 L54.432,20.6322581 L42.336,8.55483871 L42.336,20.6322581 L42.336,20.6322581 Z" id="Shape"></path>
                <path d="M46.0150376,48 L16.7368421,48 C15.7443609,48 15,47.2727273 15,46.3030303 C15,45.3333333 15.7443609,44.6060606 16.7368421,44.6060606 L46.2631579,44.6060606 C47.2556391,44.6060606 48,45.3333333 48,46.3030303 C48,47.2727273 47.0075188,48 46.0150376,48 L46.0150376,48 Z M46.0150376,35.3939394 L16.7368421,35.3939394 C15.7443609,35.3939394 15,34.6666667 15,33.6969697 C15,32.7272727 15.7443609,32 16.7368421,32 L46.2631579,32 C47.2556391,32 48,32.7272727 48,33.6969697 C48,34.6666667 47.0075188,35.3939394 46.0150376,35.3939394 L46.0150376,35.3939394 Z" id="Shape"></path>
            </g>
            <g id="Globe" fill="#000000" sketch:type="MSShapeGroup">
                <path d="M58.8836066,0 L58.3081967,0 C42.7721311,0 28.195082,6.52580645 17.2622951,17.466129 C6.13770492,28.5983871 0,43.9532258 0,59.883871 C-5.11066599e-15,92.5129032 26.4688525,119 58.6918033,119 L59.4590164,119 C63.6786885,119 63.295082,111.706452 58.6918033,111.322581 C58.1163934,111.322581 59.2672131,111.322581 58.6918033,111.322581 C57.5409836,111.322581 56.5819672,111.322581 55.4311475,111.130645 C53.8967213,110.554839 52.3622951,109.595161 51.0196721,108.059677 C46.8,104.029032 43.5393443,97.8870968 41.2377049,88.2903226 L58.6918033,88.2903226 C60.2262295,88.2903226 61.5688525,86.9467742 61.5688525,85.4112903 C61.5688525,83.8758065 60.2262295,82.5322581 58.6918033,82.5322581 L39.895082,82.5322581 C38.552459,74.8548387 37.7852459,67.3693548 37.7852459,59.3080645 C37.7852459,54.1258065 38.1688525,49.9032258 38.9360656,44.1451613 L77.104918,44.1451613 C77.4885246,46.0645161 77.6803279,48.9435484 77.8721311,51.4387097 C78.0639344,52.9741935 79.4065574,54.1258065 80.9409836,54.1258065 C82.4754098,53.933871 83.6262295,52.5903226 83.6262295,50.8629032 C83.4344262,48.5596774 83.242623,46.0645161 82.8590164,44.1451613 L107.409836,44.1451613 C108.177049,46.8322581 108.560656,48.9435484 108.944262,51.2467742 C109.519672,56.0451613 117,57.1967742 117,52.7822581 C113.931148,23.8 88.9967213,1.91935484 58.8836066,0 L58.8836066,0 Z M7.48032787,59.6919355 C7.48032787,54.3177419 8.24754098,50.0951613 9.78196721,44.3370968 L33.1819672,44.3370968 C32.6065574,50.0951613 32.2229508,54.1258065 32.2229508,59.3080645 C32.0311475,67.5612903 32.7983607,75.0467742 34.1409836,82.7241935 L13.042623,82.7241935 C9.59016393,76.7741935 7.48032787,67.9451613 7.48032787,59.6919355 L7.48032787,59.6919355 Z M44.3065574,109.019355 C32.7983607,105.564516 23.0163934,97.8870968 16.495082,88.2903226 L35.4836066,88.2903226 C37.4016393,97.8870968 40.4704918,103.837097 44.3065574,109.019355 L44.3065574,109.019355 Z M33.9491803,38.3870968 L11.8918033,38.3870968 C14.3852459,32.6290323 18.0295082,27.4467742 22.6327869,22.8403226 C29.3459016,16.3145161 37.4016393,11.516129 46.2245902,9.21290323 C40.6622951,15.3548387 36.442623,24.9516129 33.9491803,38.3870968 L33.9491803,38.3870968 Z M39.895082,38.3870968 C43.347541,21.1129032 50.4442623,8.82903226 58.1163934,8.82903226 C65.7885246,8.82903226 72.6934426,21.1129032 76.1459016,38.3870968 L39.895082,38.3870968 L39.895082,38.3870968 Z M82.0918033,38.3870968 C79.7901639,26.8709677 75.7622951,15.7387097 70.5836066,9.78870968 C86.1196721,14.2032258 98.7786885,24.9516129 105.3,38.3870968 L82.0918033,38.3870968 L82.0918033,38.3870968 Z"></path>
            </g>
        </g>
    </g>
</svg>